<?xml version="1.0" standalone="no"?>
<!DOCTYPE svg PUBLIC "-//W3C//DTD SVG 20010904//EN"
 "http://www.w3.org/TR/2001/REC-SVG-20010904/DTD/svg10.dtd">
<svg version="1.0" xmlns="http://www.w3.org/2000/svg"
 width="1024.000000pt" height="1024.000000pt" viewBox="0 0 1024.000000 1024.000000"
 preserveAspectRatio="xMidYMid meet">

<g transform="translate(0.000000,1024.000000) scale(0.100000,-0.100000)"
fill="#000000" stroke="none">
<path d="M5025 8456 c-69 -32 -102 -70 -175 -199 -75 -131 -125 -214 -364
-597 -98 -157 -213 -341 -256 -410 -42 -69 -147 -238 -233 -376 -230 -371
-285 -494 -334 -739 -25 -126 -25 -444 0 -565 60 -283 216 -569 427 -780 123
-123 243 -207 405 -286 139 -67 231 -101 360 -130 113 -27 440 -27 570 -1 212
43 523 204 688 356 65 61 229 261 276 337 161 265 218 440 230 717 l6 139 258
0 258 0 28 -45 c22 -33 44 -52 92 -76 69 -35 106 -38 170 -16 118 42 184 149
159 256 -16 64 -58 121 -117 156 -40 23 -59 28 -113 28 -42 -1 -76 -7 -97 -18
-42 -22 -98 -80 -113 -117 l-12 -30 -152 1 c-83 1 -198 4 -255 8 l-104 6 -18
92 c-38 184 -75 270 -254 578 -52 88 -96 172 -100 186 -8 33 34 145 76 204 38
52 34 52 249 61 85 3 166 7 179 8 18 1 26 -6 34 -29 22 -69 110 -125 196 -125
130 0 231 95 231 218 0 96 -73 198 -157 221 -53 15 -117 14 -157 -3 -39 -16
-100 -76 -116 -115 l-12 -29 -196 -7 c-108 -3 -212 -11 -230 -17 -64 -20 -136
-100 -198 -221 -31 -62 -65 -122 -76 -133 -24 -27 -31 -11 138 -300 206 -351
246 -473 248 -754 1 -218 -20 -344 -85 -526 -19 -51 -35 -81 -41 -77 -7 3 -8
1 -4 -5 11 -17 -31 -105 -45 -96 -8 4 -9 3 -5 -5 8 -12 -42 -99 -70 -122 -8
-7 1 12 20 41 20 30 33 56 30 59 -3 3 -9 -1 -14 -9 -6 -8 -10 -10 -10 -5 0 6
5 16 11 22 7 7 6 12 -6 17 -9 3 -13 2 -10 -4 3 -6 2 -10 -3 -10 -6 0 -12 7
-16 15 -3 8 -12 12 -21 9 -14 -6 -13 -8 2 -20 17 -12 16 -13 -9 -14 -29 0 -38
-14 -15 -24 6 -3 -1 -3 -18 0 -23 4 -27 3 -15 -5 8 -6 12 -11 8 -12 -5 -1 -11
-2 -15 -3 -5 -1 -14 -5 -20 -9 -9 -6 -11 -3 -7 10 3 10 -4 3 -16 -14 -20 -30
-40 -48 -24 -21 5 8 2 9 -9 5 -10 -3 -17 -2 -17 4 0 6 -5 7 -10 4 -8 -5 -8
-11 0 -20 8 -10 8 -15 -1 -21 -8 -4 -9 -3 -5 4 4 7 1 12 -8 12 -8 0 -18 -5
-21 -10 -4 -6 -12 -10 -18 -9 -26 3 -36 -2 -42 -20 -7 -23 -35 -36 -47 -21 -4
5 -5 8 -2 5 9 -6 38 25 30 33 -4 3 -10 2 -14 -4 -4 -6 -16 -16 -27 -22 -11 -6
-14 -12 -7 -12 14 0 17 -20 2 -20 -6 0 -19 -9 -31 -21 -15 -15 -24 -18 -32
-10 -17 17 -27 13 -27 -9 0 -18 -3 -19 -21 -9 -15 8 -19 8 -15 0 4 -6 2 -11
-4 -11 -7 0 -20 -10 -31 -22 -12 -15 -17 -17 -13 -7 3 10 1 20 -4 23 -12 7
-44 -3 -38 -13 2 -3 -2 -12 -10 -19 -12 -11 -14 -9 -14 10 0 19 -2 20 -10 8
-8 -13 -10 -12 -10 3 0 9 -5 17 -11 17 -8 0 -10 -13 -6 -37 4 -23 3 -33 -2
-24 -7 10 -24 12 -65 9 -32 -3 -51 -1 -44 3 10 7 10 9 -2 9 -8 0 -22 -5 -30
-10 -12 -8 -12 -10 -1 -10 11 0 10 -5 -4 -20 -10 -11 -23 -20 -28 -20 -6 0 -3
6 8 13 10 8 15 19 12 24 -8 13 -55 14 -63 2 -3 -5 -14 -9 -24 -9 -10 0 -24 -8
-29 -17 -10 -17 -10 -16 -11 2 -1 19 -2 19 -17 -2 -8 -13 -22 -23 -29 -23 -9
0 -14 -12 -14 -32 0 -25 -3 -29 -10 -18 -6 10 -10 -10 -13 -65 -1 -44 -4 40
-5 186 -1 146 -5 294 -8 327 -6 55 -5 62 12 68 10 4 30 17 44 30 24 22 30 23
85 14 126 -21 295 -4 408 41 81 32 178 102 257 185 59 63 82 97 125 188 77
163 89 215 90 381 0 201 -32 317 -102 362 -23 15 -48 18 -163 17 -124 -1 -143
-4 -235 -34 -283 -92 -467 -255 -580 -515 l-33 -77 -16 54 c-35 120 -160 291
-277 380 -195 149 -402 215 -603 193 -58 -6 -74 -12 -106 -41 -48 -43 -77
-129 -92 -272 -28 -264 55 -489 251 -682 90 -89 205 -152 321 -176 104 -22
292 -16 337 11 l32 19 44 -40 45 -39 0 -105 c0 -114 -13 -402 -16 -357 -1 15
-8 28 -14 28 -45 5 -58 7 -84 13 -29 7 -29 7 -6 -9 12 -9 22 -22 22 -28 0 -8
-4 -7 -9 2 -5 8 -19 15 -30 16 -11 1 -18 -2 -15 -6 2 -4 0 -10 -6 -14 -5 -3
-10 3 -10 14 0 10 6 22 13 25 6 3 1 3 -13 -1 -14 -4 -36 -7 -50 -7 -14 0 -31
-9 -38 -18 -16 -22 -32 -15 -32 14 0 14 -4 18 -12 12 -7 -5 -25 -9 -40 -8 -19
1 -25 -3 -21 -14 5 -12 2 -12 -15 -3 -11 6 -28 8 -38 4 -14 -5 -16 -3 -11 11
4 9 3 15 -2 11 -14 -8 -42 6 -34 18 4 6 1 7 -7 2 -10 -6 -10 -11 3 -20 19 -14
23 -35 6 -35 -5 0 -7 5 -4 10 6 9 -27 15 -67 12 -20 -2 -25 14 -6 20 7 3 8 9
3 18 -6 10 -11 9 -21 -5 -12 -16 -18 -17 -52 -7 -25 8 -49 9 -70 3 -20 -6 -34
-6 -38 0 -3 6 3 13 15 16 12 3 21 9 21 14 0 15 -16 10 -44 -12 -27 -21 -29
-19 -26 19 2 33 -17 27 -22 -8 -3 -20 1 -35 11 -43 12 -10 13 -9 6 2 -5 9 -4
12 3 7 6 -4 9 -13 5 -21 -3 -9 1 -15 8 -15 10 -1 9 -4 -3 -14 -16 -12 -16 -14
3 -29 10 -9 24 -17 29 -17 6 0 9 -6 7 -13 -1 -6 5 -11 14 -9 18 3 46 -25 35
-35 -4 -4 -11 -2 -15 6 -5 7 -10 11 -13 9 -8 -5 -98 69 -91 76 3 3 -1 6 -9 6
-24 0 -189 179 -252 273 -97 146 -167 310 -203 477 -23 106 -25 414 -4 530 17
96 61 231 101 312 33 65 199 340 399 661 62 100 148 238 191 307 42 69 109
177 150 240 144 227 237 377 315 509 44 73 90 144 102 157 26 28 68 31 101 9
12 -9 60 -82 108 -163 48 -81 109 -181 136 -222 27 -41 122 -194 213 -340 226
-366 293 -470 303 -470 15 0 72 91 72 116 0 13 -12 48 -26 77 -31 61 -213 365
-292 487 -31 47 -120 193 -198 325 -158 265 -190 310 -249 336 -59 27 -157 25
-220 -5z m2010 -1090 c36 -15 65 -59 65 -100 0 -14 -14 -40 -34 -60 -46 -49
-95 -50 -143 -4 -53 51 -44 119 20 158 38 24 47 24 92 6z m-995 -1005 c5 -11
17 -63 26 -117 14 -82 15 -112 5 -191 -33 -268 -193 -471 -425 -538 -86 -25
-246 -22 -246 5 0 5 85 99 189 207 213 223 291 312 291 331 0 8 -13 27 -30 43
-23 24 -33 28 -47 20 -10 -5 -145 -135 -300 -288 l-283 -279 0 41 c0 101 46
267 112 404 92 193 309 339 550 370 113 15 146 13 158 -8z m-1648 -5 c279 -54
500 -235 596 -491 34 -91 62 -220 62 -286 0 -35 -5 -31 -282 249 -156 156
-291 288 -300 293 -23 12 -74 -13 -83 -40 -12 -39 42 -109 320 -410 83 -89
152 -167 154 -173 5 -16 -211 -3 -276 17 -28 8 -79 36 -114 62 -235 172 -331
418 -275 702 9 46 16 85 16 87 0 9 114 3 182 -10z m3043 -279 c18 -15 28 -36
32 -64 5 -39 2 -46 -30 -78 -28 -28 -43 -35 -75 -35 -59 0 -102 38 -102 92 0
21 5 48 10 58 27 50 121 66 165 27z m-1434 -1010 c-6 -8 -9 -16 -7 -18 2 -2
-7 -5 -20 -5 -15 -1 -23 3 -21 10 2 6 11 10 20 8 8 -1 18 2 22 8 3 5 9 10 12
10 3 0 0 -6 -6 -13z m199 -11 c0 -2 -8 -10 -17 -17 -16 -13 -17 -12 -4 4 13
16 21 21 21 13z m-70 -86 c-11 -16 -26 -33 -32 -36 -7 -4 1 9 16 29 34 44 46
50 16 7z m-303 -16 c-3 -3 -12 -4 -19 -1 -8 3 -5 6 6 6 11 1 17 -2 13 -5z
m-67 -14 c0 -5 -8 -10 -17 -10 -15 0 -16 2 -3 10 19 12 20 12 20 0z m275 -70
c-16 -16 -31 -28 -33 -25 -4 4 48 54 57 55 3 0 -8 -13 -24 -30z m-1678 4 c-3
-3 -12 -4 -19 -1 -8 3 -5 6 6 6 11 1 17 -2 13 -5z m383 -14 c0 -5 -7 -10 -15
-10 -8 0 -15 5 -15 10 0 6 7 10 15 10 8 0 15 -4 15 -10z m140 1 c0 -15 -32
-23 -44 -11 -8 8 -6 9 7 5 10 -4 17 -2 17 4 0 6 5 11 10 11 6 0 10 -4 10 -9z
m371 -342 c11 -7 9 -9 -8 -9 -26 0 -38 30 -27 68 7 26 7 26 14 -12 4 -21 13
-42 21 -47z m186 25 c-3 -3 -12 -4 -19 -1 -8 3 -5 6 6 6 11 1 17 -2 13 -5z
m-444 -21 c-7 -2 -21 -2 -30 0 -10 3 -4 5 12 5 17 0 24 -2 18 -5z m67 -3 c0
-5 -10 -10 -22 -9 -22 0 -22 1 -3 9 11 5 21 9 23 9 1 1 2 -3 2 -9z m253 3 c-7
-2 -21 -2 -30 0 -10 3 -4 5 12 5 17 0 24 -2 18 -5z"/>
<path d="M5045 7558 c-3 -13 -4 -54 -3 -92 l3 -69 -50 -18 -50 -17 -56 61 -56
61 -46 -27 c-51 -30 -77 -61 -77 -91 0 -11 23 -42 51 -68 l52 -49 -14 -41
c-20 -61 -30 -67 -98 -61 -55 5 -60 4 -76 -21 -24 -37 -25 -124 -2 -160 18
-27 21 -28 82 -21 l62 6 17 -41 c24 -60 21 -71 -34 -125 -27 -27 -50 -54 -50
-61 0 -21 60 -93 92 -110 36 -18 27 -24 103 70 l30 37 57 -23 58 -23 0 -83 c0
-79 1 -83 26 -92 14 -6 45 -10 69 -10 24 0 55 4 69 10 25 9 26 12 26 95 0 82
1 85 23 85 12 0 39 11 58 24 l36 25 32 -48 c17 -27 43 -56 57 -66 26 -17 26
-17 75 31 70 69 70 77 9 139 l-52 52 18 52 19 51 67 0 c59 0 69 3 82 23 22 35
28 82 16 126 -14 53 -37 65 -114 57 l-61 -7 -21 53 -20 54 43 43 c25 24 51 54
60 67 14 22 14 26 -1 48 -26 41 -82 78 -106 71 -11 -4 -39 -31 -61 -61 -23
-30 -43 -54 -45 -54 -2 0 -29 11 -60 25 l-57 25 5 75 c3 45 1 78 -6 85 -5 5
-47 10 -93 10 -77 0 -83 -1 -88 -22z m194 -346 c75 -60 107 -135 91 -209 -24
-103 -94 -163 -191 -163 -130 0 -221 124 -195 265 8 41 69 108 119 131 50 23
132 12 176 -24z"/>
<path d="M2798 6035 c-49 -27 -45 -113 6 -137 30 -13 70 8 88 47 14 32 -7 83
-39 96 -29 11 -22 11 -55 -6z"/>
<path d="M2988 6025 c-35 -19 -43 -47 -24 -83 31 -60 73 -66 122 -17 31 31 30
56 -2 89 -30 29 -56 32 -96 11z"/>
<path d="M3246 6015 c-39 -36 -35 -80 11 -104 31 -16 50 -14 73 9 29 29 26 74
-6 99 -34 27 -45 26 -78 -4z"/>
<path d="M5821 5004 c0 -11 3 -14 6 -6 3 7 2 16 -1 19 -3 4 -6 -2 -5 -13z"/>
<path d="M5700 4959 c0 -5 5 -7 10 -4 6 3 10 8 10 11 0 2 -4 4 -10 4 -5 0 -10
-5 -10 -11z"/>
<path d="M5511 4931 c-7 -5 -9 -11 -5 -14 5 -3 15 1 22 9 14 16 5 18 -17 5z"/>
<path d="M4460 4920 c0 -6 7 -10 15 -10 8 0 15 2 15 4 0 2 -7 6 -15 10 -8 3
-15 1 -15 -4z"/>
<path d="M5407 4919 c7 -7 15 -10 18 -7 3 3 -2 9 -12 12 -14 6 -15 5 -6 -5z"/>
<path d="M5540 4920 c-12 -8 -11 -10 8 -10 12 0 22 5 22 10 0 13 -11 13 -30 0z"/>
<path d="M4677 4899 c7 -7 15 -10 18 -7 3 3 -2 9 -12 12 -14 6 -15 5 -6 -5z"/>
<path d="M1765 3807 c-8 -12 -42 -95 -75 -182 -34 -88 -97 -250 -140 -361 -44
-111 -80 -210 -80 -222 0 -25 18 -32 79 -32 l48 0 31 68 c17 37 36 80 42 96 7
19 15 26 26 22 9 -3 82 -6 164 -6 l148 0 35 -87 35 -88 68 0 c66 0 69 1 72 25
1 14 -46 143 -114 305 -64 154 -132 319 -151 368 -19 48 -42 94 -50 102 -9 10
-34 15 -68 15 -46 0 -57 -4 -70 -23z m129 -329 c31 -75 56 -141 56 -147 0 -7
-38 -8 -112 -4 -62 3 -114 7 -116 8 -3 2 21 63 105 273 3 7 7 11 9 10 1 -2 28
-65 58 -140z"/>
<path d="M4585 3820 c-4 -6 -6 -187 -6 -402 0 -307 3 -393 13 -400 7 -4 39 -8
70 -8 57 0 57 0 63 33 4 19 5 93 3 165 l-3 132 179 0 179 0 -6 -148 c-3 -88
-1 -154 4 -165 8 -13 24 -17 69 -17 32 0 61 4 65 9 8 14 9 786 1 800 -8 12
-93 15 -120 5 -14 -5 -16 -30 -16 -175 l0 -169 -182 2 -181 3 -1 170 -1 170
-62 3 c-36 2 -64 -1 -68 -8z"/>
<path d="M8488 3783 l-38 -4 0 -75 0 -74 -45 0 -46 0 3 -67 3 -68 48 -3 c43
-3 47 -5 42 -25 -3 -12 -7 -85 -8 -162 -2 -138 -2 -141 27 -193 51 -92 138
-123 251 -88 40 12 40 13 37 56 -2 24 -8 54 -13 67 -8 22 -12 23 -64 17 -45
-6 -59 -4 -75 11 -18 17 -20 31 -20 167 l0 148 75 0 76 0 -3 63 -3 62 -72 3
-73 3 0 78 c0 73 -2 79 -22 85 -13 3 -27 5 -33 4 -5 -1 -27 -3 -47 -5z"/>
<path d="M3078 3773 c-28 -4 -28 -5 -28 -81 l0 -78 -41 4 -40 4 3 -63 3 -64
38 -3 37 -3 0 -147 c0 -158 7 -200 43 -253 49 -72 123 -95 220 -68 l38 10 -3
62 -3 62 -54 1 c-85 2 -91 14 -91 191 l0 144 73 -2 72 -2 0 64 0 64 -72 -3
-73 -2 0 85 0 85 -47 -1 c-27 -1 -60 -4 -75 -6z"/>
<path d="M5537 3615 c-46 -12 -110 -37 -125 -50 -3 -3 59 -105 65 -105 2 0 15
7 28 16 33 22 133 30 179 14 38 -12 76 -58 76 -92 0 -14 -13 -16 -89 -17 -131
-1 -186 -16 -237 -63 -50 -46 -69 -93 -60 -151 14 -86 80 -150 168 -162 65
-10 152 17 194 59 l33 33 3 -41 3 -41 65 0 65 0 -3 205 c-4 222 -11 268 -48
317 -59 78 -189 110 -317 78z m192 -341 c26 -5 31 -11 31 -34 0 -60 -95 -119
-168 -105 -47 9 -72 31 -72 65 0 41 33 64 104 71 33 3 64 7 67 7 4 1 21 -1 38
-4z"/>
<path d="M6313 3609 c-24 -12 -54 -34 -68 -51 l-25 -30 0 46 0 46 -70 0 -70 0
0 -286 c0 -177 4 -293 10 -305 9 -15 22 -19 63 -19 29 0 58 5 65 12 8 8 12 66
12 194 l0 181 31 32 c36 39 67 51 123 51 l43 0 10 59 c5 35 6 67 1 75 -13 23
-75 20 -125 -5z"/>
<path d="M7380 3617 c-90 -25 -150 -80 -193 -175 -30 -66 -30 -188 0 -255 31
-67 110 -141 174 -162 81 -27 180 -17 255 25 104 59 101 51 44 99 l-50 42 -30
-22 c-44 -33 -134 -38 -187 -10 -23 11 -51 32 -62 47 -42 53 -39 54 184 54
204 0 205 0 210 23 8 32 -10 149 -30 191 -23 48 -89 114 -130 132 -50 20 -134
26 -185 11z m135 -129 c15 -7 35 -29 46 -50 35 -68 35 -68 -116 -68 -93 0
-135 4 -135 11 0 23 42 86 68 102 32 19 100 22 137 5z"/>
<path d="M8005 3624 c-61 -16 -109 -41 -134 -70 -56 -63 -64 -143 -21 -204 31
-44 71 -68 141 -86 148 -36 139 -32 139 -64 0 -65 -104 -82 -203 -32 l-56 28
-35 -46 c-20 -26 -36 -53 -36 -59 0 -7 30 -26 68 -44 59 -28 77 -31 157 -32
77 0 97 4 139 25 70 36 111 97 111 165 0 87 -52 138 -179 176 -123 37 -151 63
-110 103 25 26 123 21 165 -7 l34 -23 34 50 c24 35 31 54 25 64 -22 34 -179
71 -239 56z"/>
<path d="M2337 3613 l-29 -4 4 -222 c3 -206 5 -225 25 -264 48 -89 138 -134
227 -114 45 10 115 52 124 73 10 22 22 3 22 -32 l0 -41 67 3 67 3 -2 300 c-2
339 6 312 -88 300 l-54 -6 0 -182 c0 -201 -4 -217 -59 -254 -45 -31 -122 -32
-151 -3 -35 35 -40 66 -40 245 0 95 -3 180 -6 189 -6 16 -41 19 -107 9z"/>
<path d="M3637 3606 c-51 -19 -104 -61 -141 -113 -42 -60 -54 -97 -55 -169 -2
-130 51 -224 158 -282 56 -31 72 -35 135 -35 124 0 208 55 271 178 43 85 50
138 27 221 -25 88 -106 170 -201 202 -45 16 -147 14 -194 -2z m197 -149 c121
-93 63 -307 -84 -307 -55 0 -122 38 -143 82 -28 56 -32 136 -10 177 46 88 155
110 237 48z"/>
<path d="M6483 3603 c15 -46 187 -466 216 -526 l32 -68 67 3 66 3 38 95 c22
52 43 109 48 125 5 17 20 53 34 80 13 28 41 93 61 145 20 52 43 110 51 128
l14 32 -73 0 -74 0 -53 -142 c-29 -79 -63 -164 -76 -190 -13 -26 -24 -54 -24
-63 0 -26 -16 -16 -34 23 -19 39 -111 284 -127 340 l-10 32 -81 0 c-72 0 -80
-2 -75 -17z"/>
<path d="M4195 3403 c-45 -7 -55 -21 -55 -74 0 -64 11 -69 154 -69 104 0 116
2 126 19 12 23 13 91 1 109 -9 14 -169 25 -226 15z"/>
</g>
</svg>
